<svg xmlns="http://www.w3.org/2000/svg" width="215" height="60" viewBox="0 0 215 60" fill="none"><g clip-path="url(#clip0_372_295)"><mask id="mask0_372_295" style="mask-type:luminance" maskUnits="userSpaceOnUse" x="0" y="0" width="167" height="53"><path d="M166.223 0H0V52.0536H166.223V0Z" fill="white"></path></mask><g mask="url(#mask0_372_295)"><path d="M18.6854 8.99007V47.494C18.3148 45.2342 17.3011 43.6334 15.9847 42.3129V14.2482C15.2021 14.9603 14.3731 15.7679 13.5508 16.6555C13.4617 16.7511 13.3727 16.8481 13.2837 16.9464V40.0995C12.3936 39.4619 11.4716 38.8388 10.5842 38.1611V20.3806C9.1189 22.5847 7.97372 25.1021 7.88203 27.6555C7.87541 27.8747 7.87541 28.0939 7.88203 28.3144V35.665C6.52563 34.0562 5.512 32.0076 5.22926 29.0889C5.20535 28.8432 5.1894 28.5961 5.18274 28.3516V27.6024C5.27042 24.7727 6.3598 22.0479 7.88225 19.5889C8.68841 18.3031 9.59177 17.0808 10.5844 15.9328C10.6655 15.837 10.7479 15.7428 10.8302 15.6485C11.6419 14.7186 12.4762 13.8604 13.2839 13.0858C14.2509 12.1572 15.1784 11.3495 15.9846 10.6879C17.5682 9.38729 18.6775 8.646 18.6775 8.646C18.6775 8.76152 18.6814 8.87712 18.6854 8.99007Z" fill="#0D1D7C"></path><path d="M32.1885 29.412C32.1899 29.3682 32.1899 29.327 32.1885 29.2885C32.1869 29.1697 32.1772 29.0512 32.1593 28.9338C31.9002 27.2731 31.2759 25.914 30.0948 24.818C29.9022 24.64 29.6989 24.462 29.4877 24.2853V38.8802C28.6189 39.7637 27.7035 40.6139 26.7882 41.4137V22.3058C26.4401 22.0774 26.0876 21.8524 25.7307 21.631C25.1807 21.2869 24.6307 20.9561 24.086 20.6226V43.6429C23.1042 44.4121 22.181 45.0935 21.3865 45.6597V15.2661C22.181 16.0646 23.1029 16.7567 24.086 17.4024C24.9562 17.9736 25.8702 18.509 26.7882 19.0523C27.7022 19.5944 28.6189 20.1457 29.4877 20.7449C30.4681 21.4224 31.3913 22.1637 32.1884 23.0312C33.485 24.4368 34.4575 26.1771 34.8215 28.51C34.8652 28.7931 34.8869 29.0791 34.8866 29.3655C34.8866 31.4287 33.7999 33.638 32.1884 35.7822L32.1885 29.412Z" fill="#6F22AA"></path><path d="M13.3701 10.7147C15.0781 10.7147 16.4628 9.33008 16.4628 7.62202C16.4628 5.91396 15.0781 4.5293 13.3701 4.5293C11.662 4.5293 10.2773 5.91396 10.2773 7.62202C10.2773 9.33008 11.662 10.7147 13.3701 10.7147Z" fill="#6F22AA"></path><path d="M13.3693 10.6932C15.0654 10.6932 16.4403 9.31825 16.4403 7.62221C16.4403 5.92618 15.0654 4.55127 13.3693 4.55127C11.6733 4.55127 10.2984 5.92618 10.2984 7.62221C10.2984 9.31825 11.6733 10.6932 13.3693 10.6932Z" stroke="#707070" stroke-width="0.0435595"></path><path d="M26.2203 16.9008C27.9284 16.9008 29.3131 15.5161 29.3131 13.8081C29.3131 12.1 27.9284 10.7153 26.2203 10.7153C24.5123 10.7153 23.1276 12.1 23.1276 13.8081C23.1276 15.5161 24.5123 16.9008 26.2203 16.9008Z" fill="#12078E"></path><path d="M26.2199 16.8792C27.916 16.8792 29.2909 15.5043 29.2909 13.8082C29.2909 12.1122 27.916 10.7373 26.2199 10.7373C24.5239 10.7373 23.149 12.1122 23.149 13.8082C23.149 15.5043 24.5239 16.8792 26.2199 16.8792Z" stroke="#707070" stroke-width="0.0435595"></path><path d="M39.3373 18.5898H43.5995L48.1012 29.5728H48.2928L52.7945 18.5898H57.0568V34.9365H53.7045V24.2968H53.5688L49.3384 34.8567H47.0556L42.8253 24.2569H42.6896V34.9365H39.3373V18.5898ZM65.4277 35.176C64.1666 35.176 63.081 34.9206 62.1711 34.4097C61.2665 33.8936 60.5694 33.1646 60.0799 32.2227C59.5904 31.2755 59.3456 30.1554 59.3456 28.8624C59.3456 27.6013 59.5904 26.4945 60.0799 25.542C60.5694 24.5895 61.2585 23.8472 62.1472 23.3151C63.0411 22.7829 64.0894 22.5169 65.292 22.5169C66.1008 22.5169 66.8538 22.6472 67.5508 22.908C68.2532 23.1634 68.8652 23.5492 69.3867 24.0653C69.9134 24.5815 70.3232 25.2307 70.6158 26.0129C70.9085 26.7898 71.0548 27.6997 71.0548 28.7427V29.6765H60.7025V27.5693H67.8542C67.8542 27.0798 67.7477 26.6461 67.5349 26.2683C67.322 25.8905 67.0267 25.5952 66.6489 25.3823C66.2764 25.1642 65.8427 25.0551 65.3479 25.0551C64.8317 25.0551 64.3741 25.1748 63.975 25.4143C63.5812 25.6484 63.2726 25.965 63.0491 26.3641C62.8256 26.7579 62.7112 27.1969 62.7059 27.6811V29.6845C62.7059 30.2911 62.8176 30.8153 63.0411 31.2569C63.27 31.6986 63.5919 32.0391 64.0069 32.2786C64.422 32.518 64.9142 32.6378 65.4836 32.6378C65.8614 32.6378 66.2072 32.5846 66.5212 32.4781C66.8351 32.3717 67.1039 32.2121 67.3274 31.9992C67.5508 31.7864 67.7211 31.5256 67.8382 31.217L70.983 31.4245C70.8234 32.1802 70.4961 32.84 70.0012 33.404C69.5117 33.9627 68.8785 34.3991 68.1016 34.713C67.33 35.0217 66.4387 35.176 65.4277 35.176ZM76.674 27.8487V34.9365H73.2738V22.6765H76.5144V24.8396H76.658C76.9294 24.1265 77.3844 23.5625 78.0229 23.1474C78.6615 22.7271 79.4357 22.5169 80.3456 22.5169C81.197 22.5169 81.9393 22.7031 82.5725 23.0756C83.2058 23.4481 83.698 23.9802 84.0492 24.672C84.4004 25.3584 84.576 26.1779 84.576 27.1303V34.9365H81.1757V27.737C81.1811 26.9867 80.9895 26.4013 80.601 25.981C80.2126 25.5553 79.6778 25.3424 78.9967 25.3424C78.5391 25.3424 78.1347 25.4409 77.7835 25.6378C77.4376 25.8346 77.1662 26.122 76.9693 26.4998C76.7778 26.8723 76.6793 27.3219 76.674 27.8487ZM93.777 22.6765V25.2307H86.3938V22.6765H93.777ZM88.07 19.7392H91.4702V31.1691C91.4702 31.4831 91.5181 31.7278 91.6139 31.9034C91.7097 32.0737 91.8427 32.1935 92.013 32.2626C92.1886 32.3318 92.3908 32.3664 92.6196 32.3664C92.7792 32.3664 92.9389 32.3531 93.0985 32.3265C93.2581 32.2946 93.3805 32.2706 93.4657 32.2546L94.0005 34.7849C93.8302 34.8381 93.5907 34.8993 93.2821 34.9685C92.9735 35.0429 92.5983 35.0882 92.1567 35.1041C91.3372 35.1361 90.6188 35.027 90.0016 34.7769C89.3896 34.5268 88.9134 34.1383 88.5728 33.6115C88.2323 33.0848 88.0647 32.4196 88.07 31.6161V19.7392ZM101.4 35.176C100.16 35.176 99.0875 34.9126 98.1829 34.3858C97.2836 33.8537 96.5892 33.114 96.0997 32.1668C95.6101 31.2144 95.3653 30.1102 95.3653 28.8544C95.3653 27.588 95.6101 26.4812 96.0997 25.534C96.5892 24.5815 97.2836 23.8419 98.1829 23.3151C99.0875 22.7829 100.16 22.5169 101.4 22.5169C102.639 22.5169 103.709 22.7829 104.608 23.3151C105.513 23.8419 106.21 24.5815 106.699 25.534C107.189 26.4812 107.434 27.588 107.434 28.8544C107.434 30.1102 107.189 31.2144 106.699 32.1668C106.21 33.114 105.513 33.8537 104.608 34.3858C103.709 34.9126 102.639 35.176 101.4 35.176ZM101.416 32.542C101.98 32.542 102.45 32.3824 102.828 32.0631C103.206 31.7385 103.491 31.2968 103.682 30.7381C103.879 30.1794 103.978 29.5435 103.978 28.8305C103.978 28.1174 103.879 27.4815 103.682 26.9228C103.491 26.3641 103.206 25.9224 102.828 25.5978C102.45 25.2733 101.98 25.111 101.416 25.111C100.846 25.111 100.367 25.2733 99.9788 25.5978C99.5957 25.9224 99.3057 26.3641 99.1088 26.9228C98.9172 27.4815 98.8214 28.1174 98.8214 28.8305C98.8214 29.5435 98.9172 30.1794 99.1088 30.7381C99.3057 31.2968 99.5957 31.7385 99.9788 32.0631C100.367 32.3824 100.846 32.542 101.416 32.542Z" fill="#0D1D7C"></path><path d="M109.709 18.5898H113.971L118.473 29.5728H118.664L123.166 18.5898H127.428V34.9365H124.076V24.2968H123.94L119.71 34.8567H117.427L113.197 24.2569H113.061V34.9365H109.709V18.5898ZM130.212 34.9365V22.6765H133.612V34.9365H130.212ZM131.92 21.0961C131.414 21.0961 130.981 20.9285 130.619 20.5933C130.262 20.2527 130.084 19.8456 130.084 19.3721C130.084 18.9038 130.262 18.502 130.619 18.1668C130.981 17.8263 131.414 17.656 131.92 17.656C132.425 17.656 132.856 17.8263 133.213 18.1668C133.575 18.502 133.756 18.9038 133.756 19.3721C133.756 19.8456 133.575 20.2527 133.213 20.5933C132.856 20.9285 132.425 21.0961 131.92 21.0961ZM139.736 27.8487V34.9365H136.336V22.6765H139.576V24.8396H139.72C139.991 24.1265 140.446 23.5625 141.085 23.1474C141.723 22.7271 142.498 22.5169 143.408 22.5169C144.259 22.5169 145.001 22.7031 145.635 23.0756C146.268 23.4481 146.76 23.9802 147.111 24.672C147.462 25.3584 147.638 26.1779 147.638 27.1303V34.9365H144.238V27.737C144.243 26.9867 144.052 26.4013 143.663 25.981C143.275 25.5553 142.74 25.3424 142.059 25.3424C141.601 25.3424 141.197 25.4409 140.845 25.6378C140.5 25.8346 140.228 26.122 140.031 26.4998C139.84 26.8723 139.741 27.3219 139.736 27.8487ZM154.836 35.1361C153.904 35.1361 153.061 34.8966 152.305 34.4177C151.555 33.9335 150.959 33.2231 150.517 32.2866C150.081 31.3447 149.863 30.19 149.863 28.8225C149.863 27.4177 150.089 26.2497 150.541 25.3185C150.994 24.382 151.595 23.6822 152.345 23.2193C153.101 22.751 153.928 22.5169 154.828 22.5169C155.514 22.5169 156.086 22.6339 156.544 22.8681C157.007 23.0969 157.379 23.3842 157.661 23.7301C157.948 24.0707 158.167 24.4059 158.316 24.7358H158.419V18.5898H161.812V34.9365H158.459V32.973H158.316C158.156 33.3136 157.93 33.6515 157.637 33.9867C157.35 34.3166 156.975 34.5906 156.512 34.8088C156.054 35.027 155.495 35.1361 154.836 35.1361ZM155.913 32.4302C156.461 32.4302 156.924 32.2813 157.302 31.9833C157.685 31.68 157.978 31.2569 158.18 30.7142C158.387 30.1714 158.491 29.5355 158.491 28.8065C158.491 28.0775 158.39 27.4443 158.188 26.9069C157.986 26.3694 157.693 25.9544 157.31 25.6617C156.927 25.369 156.461 25.2227 155.913 25.2227C155.354 25.2227 154.883 25.3744 154.5 25.6777C154.117 25.981 153.827 26.4013 153.63 26.9388C153.433 27.4762 153.335 28.0988 153.335 28.8065C153.335 29.5196 153.433 30.1501 153.63 30.6982C153.833 31.241 154.123 31.6667 154.5 31.9753C154.883 32.2786 155.354 32.4302 155.913 32.4302Z" fill="#6F22AA"></path></g></g><path d="M38.1021 55.1948V45.8956H43.9322V47.1034H39.5051V49.9368H43.628V51.1401H39.5051V53.987H43.9867V55.1948H38.1021ZM46.5133 48.2204L48.0525 50.9357L49.6054 48.2204H51.0902L48.9152 51.7076L51.1084 55.1948H49.6236L48.0525 52.5885L46.486 55.1948H44.9967L47.1671 51.7076L45.0239 48.2204H46.5133ZM54.8915 55.3356C54.2165 55.3356 53.6353 55.1827 53.1479 54.877C52.6636 54.5682 52.2913 54.1429 52.0309 53.6011C51.7706 53.0592 51.6404 52.4387 51.6404 51.7394C51.6404 51.0311 51.7736 50.406 52.04 49.8641C52.3064 49.3193 52.6817 48.894 53.1661 48.5882C53.6504 48.2825 54.221 48.1296 54.8779 48.1296C55.4076 48.1296 55.8799 48.228 56.2946 48.4248C56.7093 48.6185 57.0438 48.8909 57.298 49.2421C57.5553 49.5932 57.7082 50.0034 57.7566 50.4726H56.4353C56.3627 50.1457 56.1962 49.8641 55.9359 49.628C55.6786 49.3919 55.3335 49.2739 54.9006 49.2739C54.5222 49.2739 54.1907 49.3738 53.9062 49.5735C53.6247 49.7703 53.4052 50.0518 53.2478 50.4181C53.0904 50.7813 53.0117 51.2112 53.0117 51.7076C53.0117 52.2162 53.0889 52.6551 53.2433 53.0244C53.3976 53.3937 53.6156 53.6798 53.8971 53.8826C54.1817 54.0854 54.5162 54.1868 54.9006 54.1868C55.1579 54.1868 55.391 54.1399 55.5998 54.046C55.8117 53.9492 55.9888 53.8114 56.1311 53.6329C56.2764 53.4543 56.3778 53.2393 56.4353 52.9881H57.7566C57.7082 53.4391 57.5614 53.8417 57.3162 54.1959C57.071 54.5501 56.7426 54.8285 56.3309 55.0314C55.9222 55.2342 55.4424 55.3356 54.8915 55.3356ZM61.9587 55.3356C61.2715 55.3356 60.6797 55.1888 60.1833 54.8951C59.6899 54.5985 59.3085 54.1823 59.039 53.6465C58.7727 53.1077 58.6395 52.4765 58.6395 51.753C58.6395 51.0386 58.7727 50.409 59.039 49.8641C59.3085 49.3193 59.6838 48.894 60.1651 48.5882C60.6495 48.2825 61.2155 48.1296 61.8633 48.1296C62.2568 48.1296 62.6382 48.1947 63.0075 48.3249C63.3768 48.455 63.7083 48.6594 64.0019 48.9379C64.2956 49.2163 64.5271 49.5781 64.6967 50.0231C64.8662 50.465 64.9509 51.0023 64.9509 51.635V52.1163H59.4068V51.0992H63.6205C63.6205 50.742 63.5479 50.4257 63.4026 50.1502C63.2573 49.8717 63.053 49.6522 62.7896 49.4918C62.5293 49.3314 62.2235 49.2512 61.8724 49.2512C61.491 49.2512 61.158 49.345 60.8735 49.5327C60.5919 49.7173 60.374 49.9595 60.2196 50.2592C60.0683 50.5558 59.9926 50.8782 59.9926 51.2263V52.0209C59.9926 52.4871 60.0743 52.8837 60.2378 53.2106C60.4043 53.5375 60.6358 53.7872 60.9325 53.9598C61.2291 54.1293 61.5757 54.2141 61.9723 54.2141C62.2296 54.2141 62.4642 54.1777 62.6761 54.1051C62.888 54.0294 63.0711 53.9174 63.2255 53.7691C63.3799 53.6207 63.4979 53.4376 63.5797 53.2197L64.8647 53.4512C64.7617 53.8296 64.5771 54.1611 64.3107 54.4456C64.0473 54.7271 63.7159 54.9466 63.3163 55.104C62.9198 55.2584 62.4672 55.3356 61.9587 55.3356ZM67.5592 45.8956V55.1948H66.2016V45.8956H67.5592ZM70.4876 45.8956V55.1948H69.1299V45.8956H70.4876ZM75.0642 55.3356C74.3771 55.3356 73.7853 55.1888 73.2888 54.8951C72.7954 54.5985 72.414 54.1823 72.1446 53.6465C71.8782 53.1077 71.745 52.4765 71.745 51.753C71.745 51.0386 71.8782 50.409 72.1446 49.8641C72.414 49.3193 72.7893 48.894 73.2707 48.5882C73.755 48.2825 74.321 48.1296 74.9688 48.1296C75.3624 48.1296 75.7438 48.1947 76.1131 48.3249C76.4824 48.455 76.8138 48.6594 77.1075 48.9379C77.4011 49.2163 77.6327 49.5781 77.8022 50.0231C77.9717 50.465 78.0565 51.0023 78.0565 51.635V52.1163H72.5124V51.0992H76.7261C76.7261 50.742 76.6534 50.4257 76.5081 50.1502C76.3628 49.8717 76.1585 49.6522 75.8951 49.4918C75.6348 49.3314 75.3291 49.2512 74.9779 49.2512C74.5965 49.2512 74.2635 49.345 73.979 49.5327C73.6975 49.7173 73.4795 49.9595 73.3251 50.2592C73.1738 50.5558 73.0981 50.8782 73.0981 51.2263V52.0209C73.0981 52.4871 73.1798 52.8837 73.3433 53.2106C73.5098 53.5375 73.7414 53.7872 74.038 53.9598C74.3347 54.1293 74.6813 54.2141 75.0778 54.2141C75.3351 54.2141 75.5697 54.1777 75.7816 54.1051C75.9935 54.0294 76.1766 53.9174 76.331 53.7691C76.4854 53.6207 76.6035 53.4376 76.6852 53.2197L77.9702 53.4512C77.8673 53.8296 77.6826 54.1611 77.4162 54.4456C77.1529 54.7271 76.8214 54.9466 76.4218 55.104C76.0253 55.2584 75.5727 55.3356 75.0642 55.3356ZM80.6647 51.0538V55.1948H79.3071V48.2204H80.6102V49.3556H80.6965C80.857 48.9863 81.1082 48.6896 81.4503 48.4656C81.7953 48.2416 82.2297 48.1296 82.7534 48.1296C83.2287 48.1296 83.6449 48.2295 84.0021 48.4293C84.3593 48.6261 84.6363 48.9197 84.833 49.3102C85.0298 49.7007 85.1282 50.1835 85.1282 50.7586V55.1948H83.7705V50.9221C83.7705 50.4166 83.6388 50.0215 83.3755 49.737C83.1121 49.4494 82.7504 49.3056 82.2903 49.3056C81.9755 49.3056 81.6955 49.3738 81.4503 49.51C81.2081 49.6462 81.0159 49.846 80.8736 50.1093C80.7344 50.3697 80.6647 50.6845 80.6647 51.0538ZM89.631 55.3356C88.956 55.3356 88.3748 55.1827 87.8874 54.877C87.4031 54.5682 87.0307 54.1429 86.7704 53.6011C86.5101 53.0592 86.3799 52.4387 86.3799 51.7394C86.3799 51.0311 86.5131 50.406 86.7795 49.8641C87.0459 49.3193 87.4212 48.894 87.9056 48.5882C88.3899 48.2825 88.9605 48.1296 89.6174 48.1296C90.1471 48.1296 90.6193 48.228 91.034 48.4248C91.4488 48.6185 91.7832 48.8909 92.0375 49.2421C92.2948 49.5932 92.4477 50.0034 92.4961 50.4726H91.1748C91.1022 50.1457 90.9357 49.8641 90.6753 49.628C90.418 49.3919 90.0729 49.2739 89.6401 49.2739C89.2617 49.2739 88.9302 49.3738 88.6457 49.5735C88.3642 49.7703 88.1447 50.0518 87.9873 50.4181C87.8299 50.7813 87.7512 51.2112 87.7512 51.7076C87.7512 52.2162 87.8284 52.6551 87.9828 53.0244C88.1371 53.3937 88.3551 53.6798 88.6366 53.8826C88.9211 54.0854 89.2556 54.1868 89.6401 54.1868C89.8974 54.1868 90.1305 54.1399 90.3393 54.046C90.5512 53.9492 90.7283 53.8114 90.8706 53.6329C91.0159 53.4543 91.1173 53.2393 91.1748 52.9881H92.4961C92.4477 53.4391 92.3009 53.8417 92.0557 54.1959C91.8105 54.5501 91.4821 54.8285 91.0704 55.0314C90.6617 55.2342 90.1819 55.3356 89.631 55.3356ZM96.6981 55.3356C96.011 55.3356 95.4192 55.1888 94.9228 54.8951C94.4294 54.5985 94.0479 54.1823 93.7785 53.6465C93.5121 53.1077 93.379 52.4765 93.379 51.753C93.379 51.0386 93.5121 50.409 93.7785 49.8641C94.0479 49.3193 94.4233 48.894 94.9046 48.5882C95.3889 48.2825 95.955 48.1296 96.6028 48.1296C96.9963 48.1296 97.3777 48.1947 97.747 48.3249C98.1163 48.455 98.4478 48.6594 98.7414 48.9379C99.0351 49.2163 99.2666 49.5781 99.4361 50.0231C99.6057 50.465 99.6904 51.0023 99.6904 51.635V52.1163H94.1463V51.0992H98.36C98.36 50.742 98.2874 50.4257 98.1421 50.1502C97.9968 49.8717 97.7924 49.6522 97.5291 49.4918C97.2688 49.3314 96.963 49.2512 96.6119 49.2512C96.2305 49.2512 95.8975 49.345 95.6129 49.5327C95.3314 49.7173 95.1135 49.9595 94.9591 50.2592C94.8077 50.5558 94.7321 50.8782 94.7321 51.2263V52.0209C94.7321 52.4871 94.8138 52.8837 94.9773 53.2106C95.1437 53.5375 95.3753 53.7872 95.672 53.9598C95.9686 54.1293 96.3152 54.2141 96.7118 54.2141C96.9691 54.2141 97.2037 54.1777 97.4156 54.1051C97.6275 54.0294 97.8106 53.9174 97.965 53.7691C98.1194 53.6207 98.2374 53.4376 98.3191 53.2197L99.6041 53.4512C99.5012 53.8296 99.3166 54.1611 99.0502 54.4456C98.7868 54.7271 98.4554 54.9466 98.0558 55.104C97.6592 55.2584 97.2067 55.3356 96.6981 55.3356ZM107.388 48.2204V49.3102H103.447V48.2204H107.388ZM104.528 55.1948V47.4122C104.528 46.9763 104.623 46.6146 104.814 46.327C105.005 46.0364 105.257 45.82 105.572 45.6777C105.887 45.5324 106.229 45.4597 106.598 45.4597C106.871 45.4597 107.104 45.4824 107.298 45.5279C107.491 45.5702 107.635 45.6096 107.729 45.6459L107.411 46.7447C107.348 46.7266 107.266 46.7054 107.166 46.6812C107.066 46.6539 106.945 46.6403 106.803 46.6403C106.473 46.6403 106.237 46.722 106.094 46.8855C105.955 47.049 105.885 47.2851 105.885 47.5938V55.1948H104.528ZM108.533 55.1948V48.2204H109.891V55.1948H108.533ZM109.219 47.1443C108.983 47.1443 108.78 47.0656 108.611 46.9082C108.444 46.7478 108.361 46.5571 108.361 46.3361C108.361 46.1121 108.444 45.9214 108.611 45.764C108.78 45.6035 108.983 45.5233 109.219 45.5233C109.455 45.5233 109.656 45.6035 109.823 45.764C109.992 45.9214 110.077 46.1121 110.077 46.3361C110.077 46.5571 109.992 46.7478 109.823 46.9082C109.656 47.0656 109.455 47.1443 109.219 47.1443ZM111.462 55.1948V48.2204H112.774V49.3283H112.847C112.974 48.953 113.198 48.6578 113.519 48.4429C113.843 48.225 114.209 48.116 114.618 48.116C114.702 48.116 114.802 48.119 114.917 48.1251C115.035 48.1311 115.128 48.1387 115.194 48.1478V49.4464C115.14 49.4313 115.043 49.4146 114.904 49.3965C114.764 49.3753 114.625 49.3647 114.486 49.3647C114.165 49.3647 113.879 49.4328 113.628 49.569C113.379 49.7022 113.183 49.8884 113.037 50.1275C112.892 50.3636 112.819 50.633 112.819 50.9357V55.1948H111.462ZM121.34 49.9232L120.109 50.1411C120.058 49.9837 119.976 49.8339 119.864 49.6916C119.755 49.5493 119.607 49.4328 119.419 49.342C119.231 49.2512 118.997 49.2058 118.715 49.2058C118.331 49.2058 118.01 49.292 117.753 49.4646C117.495 49.6341 117.367 49.8535 117.367 50.123C117.367 50.356 117.453 50.5437 117.625 50.686C117.798 50.8283 118.076 50.9448 118.461 51.0356L119.569 51.2899C120.211 51.4382 120.689 51.6668 121.004 51.9755C121.318 52.2843 121.476 52.6854 121.476 53.1788C121.476 53.5965 121.355 53.9689 121.113 54.2958C120.873 54.6197 120.539 54.874 120.109 55.0586C119.682 55.2433 119.187 55.3356 118.624 55.3356C117.843 55.3356 117.206 55.1691 116.713 54.8361C116.219 54.5001 115.917 54.0233 115.805 53.4058L117.117 53.206C117.199 53.5481 117.367 53.8069 117.621 53.9825C117.875 54.155 118.207 54.2413 118.615 54.2413C119.06 54.2413 119.416 54.149 119.682 53.9643C119.949 53.7766 120.082 53.5481 120.082 53.2787C120.082 53.0607 120 52.8776 119.837 52.7293C119.676 52.5809 119.43 52.4689 119.097 52.3933L117.916 52.1344C117.265 51.9861 116.784 51.75 116.472 51.4261C116.163 51.1022 116.009 50.692 116.009 50.1956C116.009 49.7839 116.124 49.4237 116.354 49.1149C116.584 48.8062 116.902 48.5655 117.308 48.393C117.713 48.2174 118.178 48.1296 118.702 48.1296C119.455 48.1296 120.049 48.2931 120.481 48.62C120.914 48.9439 121.2 49.3783 121.34 49.9232ZM125.968 48.2204V49.3102H122.159V48.2204H125.968ZM123.181 46.5495H124.538V53.147C124.538 53.4104 124.578 53.6086 124.656 53.7418C124.735 53.872 124.836 53.9613 124.96 54.0097C125.088 54.0551 125.225 54.0778 125.374 54.0778C125.483 54.0778 125.578 54.0703 125.66 54.0551C125.741 54.04 125.805 54.0279 125.85 54.0188L126.096 55.1403C126.017 55.1706 125.905 55.2009 125.76 55.2311C125.614 55.2644 125.433 55.2826 125.215 55.2856C124.858 55.2917 124.525 55.2281 124.216 55.0949C123.907 54.9617 123.657 54.7559 123.467 54.4774C123.276 54.1989 123.181 53.8493 123.181 53.4285V46.5495ZM128.981 53.9235L128.913 54.4184C128.867 54.7816 128.79 55.16 128.681 55.5535C128.575 55.9501 128.465 56.3179 128.35 56.6569C128.238 56.9959 128.145 57.2653 128.073 57.4651H127.11C127.149 57.2775 127.204 57.0232 127.274 56.7023C127.343 56.3845 127.411 56.0288 127.478 55.6353C127.544 55.2417 127.594 54.8407 127.628 54.432L127.673 53.9235H128.981ZM138.847 49.9232L137.616 50.1411C137.565 49.9837 137.483 49.8339 137.371 49.6916C137.262 49.5493 137.114 49.4328 136.926 49.342C136.739 49.2512 136.504 49.2058 136.222 49.2058C135.838 49.2058 135.517 49.292 135.26 49.4646C135.003 49.6341 134.874 49.8535 134.874 50.123C134.874 50.356 134.96 50.5437 135.133 50.686C135.305 50.8283 135.584 50.9448 135.968 51.0356L137.076 51.2899C137.718 51.4382 138.196 51.6668 138.511 51.9755C138.826 52.2843 138.983 52.6854 138.983 53.1788C138.983 53.5965 138.862 53.9689 138.62 54.2958C138.381 54.6197 138.046 54.874 137.616 55.0586C137.19 55.2433 136.695 55.3356 136.132 55.3356C135.351 55.3356 134.713 55.1691 134.22 54.8361C133.727 54.5001 133.424 54.0233 133.312 53.4058L134.624 53.206C134.706 53.5481 134.874 53.8069 135.128 53.9825C135.382 54.155 135.714 54.2413 136.123 54.2413C136.568 54.2413 136.923 54.149 137.19 53.9643C137.456 53.7766 137.589 53.5481 137.589 53.2787C137.589 53.0607 137.507 52.8776 137.344 52.7293C137.184 52.5809 136.937 52.4689 136.604 52.3933L135.423 52.1344C134.773 51.9861 134.291 51.75 133.979 51.4261C133.671 51.1022 133.516 50.692 133.516 50.1956C133.516 49.7839 133.631 49.4237 133.861 49.1149C134.091 48.8062 134.409 48.5655 134.815 48.393C135.221 48.2174 135.685 48.1296 136.209 48.1296C136.963 48.1296 137.556 48.2931 137.989 48.62C138.422 48.9439 138.708 49.3783 138.847 49.9232ZM144.638 52.3025V48.2204H146V55.1948H144.665V53.987H144.593C144.432 54.3594 144.175 54.6696 143.821 54.9178C143.47 55.163 143.032 55.2856 142.509 55.2856C142.061 55.2856 141.664 55.1873 141.319 54.9905C140.977 54.7907 140.708 54.4956 140.511 54.1051C140.317 53.7146 140.22 53.2318 140.22 52.6566V48.2204H141.578V52.4932C141.578 52.9684 141.71 53.3468 141.973 53.6283C142.236 53.9098 142.578 54.0506 142.999 54.0506C143.253 54.0506 143.506 53.987 143.757 53.8599C144.012 53.7327 144.222 53.5405 144.388 53.2832C144.558 53.0259 144.641 52.699 144.638 52.3025ZM150.507 55.3356C149.832 55.3356 149.25 55.1827 148.763 54.877C148.279 54.5682 147.906 54.1429 147.646 53.6011C147.386 53.0592 147.256 52.4387 147.256 51.7394C147.256 51.0311 147.389 50.406 147.655 49.8641C147.922 49.3193 148.297 48.894 148.781 48.5882C149.266 48.2825 149.836 48.1296 150.493 48.1296C151.023 48.1296 151.495 48.228 151.91 48.4248C152.324 48.6185 152.659 48.8909 152.913 49.2421C153.17 49.5932 153.323 50.0034 153.372 50.4726H152.05C151.978 50.1457 151.811 49.8641 151.551 49.628C151.294 49.3919 150.949 49.2739 150.516 49.2739C150.137 49.2739 149.806 49.3738 149.521 49.5735C149.24 49.7703 149.02 50.0518 148.863 50.4181C148.706 50.7813 148.627 51.2112 148.627 51.7076C148.627 52.2162 148.704 52.6551 148.858 53.0244C149.013 53.3937 149.231 53.6798 149.512 53.8826C149.797 54.0854 150.131 54.1868 150.516 54.1868C150.773 54.1868 151.006 54.1399 151.215 54.046C151.427 53.9492 151.604 53.8114 151.746 53.6329C151.892 53.4543 151.993 53.2393 152.05 52.9881H153.372C153.323 53.4391 153.177 53.8417 152.931 54.1959C152.686 54.5501 152.358 54.8285 151.946 55.0314C151.537 55.2342 151.058 55.3356 150.507 55.3356ZM157.506 55.3356C156.831 55.3356 156.249 55.1827 155.762 54.877C155.278 54.5682 154.905 54.1429 154.645 53.6011C154.385 53.0592 154.255 52.4387 154.255 51.7394C154.255 51.0311 154.388 50.406 154.654 49.8641C154.921 49.3193 155.296 48.894 155.78 48.5882C156.265 48.2825 156.835 48.1296 157.492 48.1296C158.022 48.1296 158.494 48.228 158.909 48.4248C159.323 48.6185 159.658 48.8909 159.912 49.2421C160.169 49.5932 160.322 50.0034 160.371 50.4726H159.049C158.977 50.1457 158.81 49.8641 158.55 49.628C158.293 49.3919 157.948 49.2739 157.515 49.2739C157.136 49.2739 156.805 49.3738 156.52 49.5735C156.239 49.7703 156.019 50.0518 155.862 50.4181C155.705 50.7813 155.626 51.2112 155.626 51.7076C155.626 52.2162 155.703 52.6551 155.857 53.0244C156.012 53.3937 156.23 53.6798 156.511 53.8826C156.796 54.0854 157.13 54.1868 157.515 54.1868C157.772 54.1868 158.005 54.1399 158.214 54.046C158.426 53.9492 158.603 53.8114 158.745 53.6329C158.891 53.4543 158.992 53.2393 159.049 52.9881H160.371C160.322 53.4391 160.176 53.8417 159.93 54.1959C159.685 54.5501 159.357 54.8285 158.945 55.0314C158.536 55.2342 158.057 55.3356 157.506 55.3356ZM164.573 55.3356C163.886 55.3356 163.294 55.1888 162.797 54.8951C162.304 54.5985 161.923 54.1823 161.653 53.6465C161.387 53.1077 161.254 52.4765 161.254 51.753C161.254 51.0386 161.387 50.409 161.653 49.8641C161.923 49.3193 162.298 48.894 162.779 48.5882C163.264 48.2825 163.83 48.1296 164.477 48.1296C164.871 48.1296 165.252 48.1947 165.622 48.3249C165.991 48.455 166.322 48.6594 166.616 48.9379C166.91 49.2163 167.141 49.5781 167.311 50.0231C167.48 50.465 167.565 51.0023 167.565 51.635V52.1163H162.021V51.0992H166.235C166.235 50.742 166.162 50.4257 166.017 50.1502C165.871 49.8717 165.667 49.6522 165.404 49.4918C165.143 49.3314 164.838 49.2512 164.487 49.2512C164.105 49.2512 163.772 49.345 163.488 49.5327C163.206 49.7173 162.988 49.9595 162.834 50.2592C162.682 50.5558 162.607 50.8782 162.607 51.2263V52.0209C162.607 52.4871 162.688 52.8837 162.852 53.2106C163.018 53.5375 163.25 53.7872 163.547 53.9598C163.843 54.1293 164.19 54.2141 164.586 54.2141C164.844 54.2141 165.078 54.1777 165.29 54.1051C165.502 54.0294 165.685 53.9174 165.84 53.7691C165.994 53.6207 166.112 53.4376 166.194 53.2197L167.479 53.4512C167.376 53.8296 167.191 54.1611 166.925 54.4456C166.662 54.7271 166.33 54.9466 165.93 55.104C165.534 55.2584 165.081 55.3356 164.573 55.3356ZM174.042 49.9232L172.811 50.1411C172.76 49.9837 172.678 49.8339 172.566 49.6916C172.457 49.5493 172.309 49.4328 172.121 49.342C171.934 49.2512 171.699 49.2058 171.417 49.2058C171.033 49.2058 170.712 49.292 170.455 49.4646C170.198 49.6341 170.069 49.8535 170.069 50.123C170.069 50.356 170.155 50.5437 170.328 50.686C170.5 50.8283 170.779 50.9448 171.163 51.0356L172.271 51.2899C172.913 51.4382 173.391 51.6668 173.706 51.9755C174.021 52.2843 174.178 52.6854 174.178 53.1788C174.178 53.5965 174.057 53.9689 173.815 54.2958C173.576 54.6197 173.241 54.874 172.811 55.0586C172.385 55.2433 171.89 55.3356 171.327 55.3356C170.546 55.3356 169.908 55.1691 169.415 54.8361C168.922 54.5001 168.619 54.0233 168.507 53.4058L169.819 53.206C169.901 53.5481 170.069 53.8069 170.323 53.9825C170.577 54.155 170.909 54.2413 171.318 54.2413C171.763 54.2413 172.118 54.149 172.385 53.9643C172.651 53.7766 172.784 53.5481 172.784 53.2787C172.784 53.0607 172.702 52.8776 172.539 52.7293C172.379 52.5809 172.132 52.4689 171.799 52.3933L170.618 52.1344C169.968 51.9861 169.486 51.75 169.174 51.4261C168.866 51.1022 168.711 50.692 168.711 50.1956C168.711 49.7839 168.826 49.4237 169.056 49.1149C169.286 48.8062 169.604 48.5655 170.01 48.393C170.416 48.2174 170.88 48.1296 171.404 48.1296C172.158 48.1296 172.751 48.2931 173.184 48.62C173.617 48.9439 173.903 49.3783 174.042 49.9232ZM180.641 49.9232L179.411 50.1411C179.359 49.9837 179.278 49.8339 179.166 49.6916C179.057 49.5493 178.908 49.4328 178.721 49.342C178.533 49.2512 178.298 49.2058 178.017 49.2058C177.633 49.2058 177.312 49.292 177.054 49.4646C176.797 49.6341 176.668 49.8535 176.668 50.123C176.668 50.356 176.755 50.5437 176.927 50.686C177.1 50.8283 177.378 50.9448 177.763 51.0356L178.871 51.2899C179.512 51.4382 179.991 51.6668 180.305 51.9755C180.62 52.2843 180.778 52.6854 180.778 53.1788C180.778 53.5965 180.657 53.9689 180.414 54.2958C180.175 54.6197 179.841 54.874 179.411 55.0586C178.984 55.2433 178.489 55.3356 177.926 55.3356C177.145 55.3356 176.508 55.1691 176.015 54.8361C175.521 54.5001 175.218 54.0233 175.106 53.4058L176.419 53.206C176.5 53.5481 176.668 53.8069 176.923 53.9825C177.177 54.155 177.508 54.2413 177.917 54.2413C178.362 54.2413 178.718 54.149 178.984 53.9643C179.25 53.7766 179.384 53.5481 179.384 53.2787C179.384 53.0607 179.302 52.8776 179.138 52.7293C178.978 52.5809 178.731 52.4689 178.398 52.3933L177.218 52.1344C176.567 51.9861 176.086 51.75 175.774 51.4261C175.465 51.1022 175.311 50.692 175.311 50.1956C175.311 49.7839 175.426 49.4237 175.656 49.1149C175.886 48.8062 176.204 48.5655 176.609 48.393C177.015 48.2174 177.48 48.1296 178.003 48.1296C178.757 48.1296 179.35 48.2931 179.783 48.62C180.216 48.9439 180.502 49.3783 180.641 49.9232ZM186.5 51.0538V55.1948H185.143V48.2204H186.446V49.3556H186.532C186.693 48.9863 186.944 48.6896 187.286 48.4656C187.631 48.2416 188.065 48.1296 188.589 48.1296C189.064 48.1296 189.481 48.2295 189.838 48.4293C190.195 48.6261 190.472 48.9197 190.669 49.3102C190.866 49.7007 190.964 50.1835 190.964 50.7586V55.1948H189.606V50.9221C189.606 50.4166 189.475 50.0215 189.211 49.737C188.948 49.4494 188.586 49.3056 188.126 49.3056C187.811 49.3056 187.531 49.3738 187.286 49.51C187.044 49.6462 186.852 49.846 186.709 50.1093C186.57 50.3697 186.5 50.6845 186.5 51.0538ZM195.535 55.3356C194.848 55.3356 194.256 55.1888 193.759 54.8951C193.266 54.5985 192.885 54.1823 192.615 53.6465C192.349 53.1077 192.216 52.4765 192.216 51.753C192.216 51.0386 192.349 50.409 192.615 49.8641C192.885 49.3193 193.26 48.894 193.741 48.5882C194.226 48.2825 194.792 48.1296 195.439 48.1296C195.833 48.1296 196.214 48.1947 196.584 48.3249C196.953 48.455 197.284 48.6594 197.578 48.9379C197.872 49.2163 198.103 49.5781 198.273 50.0231C198.442 50.465 198.527 51.0023 198.527 51.635V52.1163H192.983V51.0992H197.197C197.197 50.742 197.124 50.4257 196.979 50.1502C196.833 49.8717 196.629 49.6522 196.366 49.4918C196.105 49.3314 195.8 49.2512 195.449 49.2512C195.067 49.2512 194.734 49.345 194.45 49.5327C194.168 49.7173 193.95 49.9595 193.796 50.2592C193.644 50.5558 193.569 50.8782 193.569 51.2263V52.0209C193.569 52.4871 193.65 52.8837 193.814 53.2106C193.98 53.5375 194.212 53.7872 194.509 53.9598C194.805 54.1293 195.152 54.2141 195.548 54.2141C195.806 54.2141 196.04 54.1777 196.252 54.1051C196.464 54.0294 196.647 53.9174 196.802 53.7691C196.956 53.6207 197.074 53.4376 197.156 53.2197L198.441 53.4512C198.338 53.8296 198.153 54.1611 197.887 54.4456C197.624 54.7271 197.292 54.9466 196.892 55.104C196.496 55.2584 196.043 55.3356 195.535 55.3356ZM200.687 48.2204L202.226 50.9357L203.779 48.2204H205.264L203.089 51.7076L205.282 55.1948H203.797L202.226 52.5885L200.66 55.1948H199.17L201.341 51.7076L199.198 48.2204H200.687ZM209.658 48.2204V49.3102H205.848V48.2204H209.658ZM206.87 46.5495H208.227V53.147C208.227 53.4104 208.267 53.6086 208.346 53.7418C208.424 53.872 208.526 53.9613 208.65 54.0097C208.777 54.0551 208.915 54.0778 209.063 54.0778C209.172 54.0778 209.267 54.0703 209.349 54.0551C209.431 54.04 209.494 54.0279 209.54 54.0188L209.785 55.1403C209.706 55.1706 209.594 55.2009 209.449 55.2311C209.304 55.2644 209.122 55.2826 208.904 55.2856C208.547 55.2917 208.214 55.2281 207.905 55.0949C207.596 54.9617 207.347 54.7559 207.156 54.4774C206.965 54.1989 206.87 53.8493 206.87 53.4285V46.5495ZM211.798 55.2811C211.55 55.2811 211.337 55.1933 211.158 55.0177C210.98 54.8391 210.89 54.6242 210.89 54.373C210.89 54.1248 210.98 53.9129 211.158 53.7373C211.337 53.5587 211.55 53.4694 211.798 53.4694C212.047 53.4694 212.26 53.5587 212.439 53.7373C212.617 53.9129 212.706 54.1248 212.706 54.373C212.706 54.5395 212.664 54.6923 212.579 54.8316C212.498 54.9678 212.389 55.0768 212.252 55.1585C212.116 55.2402 211.965 55.2811 211.798 55.2811Z" fill="#4B5563"></path><defs><clipPath id="clip0_372_295"><rect width="166.223" height="52.0536" fill="white"></rect></clipPath></defs></svg>